<svg width="423" height="312" viewBox="0 0 423 312" fill="none" xmlns="http://www.w3.org/2000/svg">
<path d="M245.767 46.7842C218.65 45.8424 192.821 37.0628 168.16 27.4652C143.498 17.8676 119.065 7.23075 92.5997 2.14306C75.5749 -1.12867 56.1057 -1.58266 42.39 7.55717C29.1871 16.3593 24.9235 31.5699 22.6325 45.6586C20.9068 56.2692 19.8924 67.4201 24.6165 77.3666C27.8994 84.259 33.7278 90.0558 37.7594 96.6593C51.7783 119.644 41.8771 147.983 26.6716 170.42C19.5592 180.948 11.2752 190.988 5.77615 202.195C0.277154 213.402 -2.26833 226.238 2.54189 237.666C7.31468 248.997 18.6795 257.507 30.9914 263.491C56.0009 275.648 85.4724 279.13 114.21 281.099C177.829 285.444 241.784 283.568 305.567 281.692C329.173 280.991 352.879 280.281 376.103 276.623C388.995 274.593 402.307 271.37 411.665 263.585C423.55 253.702 426.496 236.969 418.531 224.564C405.174 203.782 368.239 198.62 358.903 176.314C353.763 164.037 359.041 150.361 366.509 138.974C382.531 114.545 409.386 93.1174 410.801 65.1952C411.774 46.0188 398.863 26.8124 378.903 17.7401C357.978 8.22878 328.967 9.42566 313.529 25.169C297.642 41.3813 269.709 47.6171 245.767 46.7842Z" fill="#FAD6A6"/>
<path d="M248.627 283.609L175.631 282.671L175.845 280.795L179.375 249.841H243.48L248.196 280.795L248.556 283.14L248.627 283.609Z" fill="#E8F3FB"/>
<path d="M260.325 281.264H163.465V283.609H260.325V281.264Z" fill="#E8F3FB"/>
<path d="M352.737 63.9226C352.741 63.1209 352.587 62.3263 352.285 61.5842C351.982 60.8421 351.537 60.1669 350.974 59.5972C350.412 59.0276 349.742 58.5746 349.005 58.2642C348.268 57.9538 347.476 57.792 346.677 57.7881H76.1774C75.3773 57.7915 74.5856 57.953 73.8478 58.2632C73.1099 58.5734 72.4403 59.0262 71.8771 59.5959C71.314 60.1656 70.8683 60.8409 70.5656 61.5833C70.263 62.3257 70.1092 63.1206 70.1131 63.9226V228.26H352.737V63.9226Z" fill="#003D67"/>
<path d="M70.1132 226.627V245.875C70.1132 247.487 70.7521 249.033 71.8893 250.173C73.0266 251.313 74.5691 251.953 76.1774 251.953H346.677C348.284 251.952 349.826 251.312 350.962 250.172C352.099 249.032 352.737 247.487 352.737 245.875V226.627H70.1132Z" fill="#F2F8FC"/>
<path d="M342.443 68.1061H81.8112V215.84H342.443V68.1061Z" fill="#004879"/>
<path d="M212.829 244.648C213.786 244.649 214.731 244.432 215.592 244.013C216.453 243.594 217.208 242.985 217.8 242.232C217.98 242.002 218.144 241.76 218.29 241.508L214.824 240.937L218.567 240.967C218.929 240.183 219.125 239.333 219.146 238.47C219.167 237.606 219.01 236.748 218.687 235.947L213.66 238.574L218.298 235.159C217.862 234.41 217.277 233.759 216.58 233.245C215.883 232.732 215.087 232.368 214.244 232.175C213.4 231.983 212.526 231.966 211.676 232.127C210.825 232.287 210.017 232.62 209.3 233.107C208.584 233.593 207.975 234.222 207.511 234.954C207.047 235.686 206.739 236.506 206.604 237.363C206.469 238.219 206.512 239.095 206.729 239.934C206.946 240.774 207.333 241.56 207.865 242.243C208.457 242.994 209.212 243.601 210.071 244.017C210.931 244.434 211.874 244.65 212.829 244.648Z" fill="#E98300"/>
<path opacity="0.1" d="M219.148 251.953L248.267 281.264L243.801 251.953H219.148Z" fill="black"/>
<path d="M259.565 94.7601H90.4396C89.9021 94.7601 89.4664 95.1969 89.4664 95.7356V196.589C89.4664 197.128 89.9021 197.564 90.4396 197.564H259.565C260.102 197.564 260.538 197.128 260.538 196.589V95.7356C260.538 95.1969 260.102 94.7601 259.565 94.7601Z" fill="white"/>
<path d="M342.518 68.121H81.9797V76.7505H342.518V68.121Z" fill="white"/>
<path d="M90.2974 69.6218H83.3946C83.2333 69.6218 83.1026 69.7529 83.1026 69.9145V74.582C83.1026 74.7436 83.2333 74.8746 83.3946 74.8746H90.2974C90.4586 74.8746 90.5893 74.7436 90.5893 74.582V69.9145C90.5893 69.7529 90.4586 69.6218 90.2974 69.6218Z" fill="#E98300"/>
<path opacity="0.3" d="M250.588 69.6218H172.412C172.292 69.6218 172.195 69.7193 172.195 69.8394V74.657C172.195 74.7772 172.292 74.8746 172.412 74.8746H250.588C250.708 74.8746 250.805 74.7772 250.805 74.657V69.8394C250.805 69.7193 250.708 69.6218 250.588 69.6218Z" fill="#E98300"/>
<path d="M248.473 72.7885H248.282L248.211 72.7285C248.451 72.4428 248.584 72.0816 248.585 71.708C248.583 71.4011 248.49 71.1017 248.319 70.8477C248.147 70.5936 247.904 70.3963 247.62 70.2806C247.337 70.1648 247.025 70.1359 246.725 70.1974C246.425 70.2589 246.15 70.4081 245.935 70.6262C245.719 70.8442 245.573 71.1213 245.514 71.4226C245.456 71.7238 245.488 72.0357 245.606 72.3188C245.724 72.6019 245.924 72.8436 246.179 73.0133C246.434 73.1831 246.733 73.2733 247.039 73.2725C247.412 73.2703 247.772 73.1375 248.058 72.8973L248.129 72.9574V73.1525L249.327 74.3531L249.701 73.9779L248.473 72.7885ZM247.036 72.7885C246.821 72.7893 246.612 72.7262 246.433 72.6074C246.255 72.4885 246.116 72.3192 246.033 72.1209C245.951 71.9226 245.929 71.7043 245.971 71.4936C246.012 71.2829 246.115 71.0893 246.267 70.9375C246.418 70.7856 246.612 70.6823 246.822 70.6405C247.032 70.5988 247.25 70.6206 247.448 70.7031C247.646 70.7857 247.814 70.9252 247.933 71.1041C248.052 71.283 248.115 71.4932 248.114 71.708C248.115 71.8501 248.088 71.9911 248.034 72.1226C247.98 72.2542 247.901 72.3737 247.8 72.4743C247.7 72.5748 247.581 72.6544 247.449 72.7083C247.318 72.7623 247.178 72.7895 247.036 72.7885Z" fill="#545454"/>
<path d="M338.774 74.8746C340.222 74.8746 341.395 73.6987 341.395 72.2482C341.395 70.7977 340.222 69.6218 338.774 69.6218C337.327 69.6218 336.154 70.7977 336.154 72.2482C336.154 73.6987 337.327 74.8746 338.774 74.8746Z" fill="#E98300"/>
<path d="M296.313 86.1306H273.801C273.298 86.1306 272.891 86.5388 272.891 87.0424V101.728C272.891 102.231 273.298 102.639 273.801 102.639H296.313C296.816 102.639 297.223 102.231 297.223 101.728V87.0424C297.223 86.5388 296.816 86.1306 296.313 86.1306Z" fill="white"/>
<path d="M334.803 86.1306H303.815C303.689 86.1306 303.587 86.2331 303.587 86.3595V88.5281C303.587 88.6545 303.689 88.757 303.815 88.757H334.803C334.929 88.757 335.031 88.6545 335.031 88.5281V86.3595C335.031 86.2331 334.929 86.1306 334.803 86.1306Z" fill="white"/>
<path d="M334.803 91.7585H303.815C303.689 91.7585 303.587 91.861 303.587 91.9874V94.1561C303.587 94.2825 303.689 94.3849 303.815 94.3849H334.803C334.929 94.3849 335.031 94.2825 335.031 94.1561V91.9874C335.031 91.861 334.929 91.7585 334.803 91.7585Z" fill="white"/>
<path d="M334.803 97.3865H303.815C303.689 97.3865 303.587 97.4889 303.587 97.6154V99.784C303.587 99.9104 303.689 100.013 303.815 100.013H334.803C334.929 100.013 335.031 99.9104 335.031 99.784V97.6154C335.031 97.4889 334.929 97.3865 334.803 97.3865Z" fill="white"/>
<path d="M296.313 112.019H273.801C273.298 112.019 272.891 112.427 272.891 112.931V127.616C272.891 128.12 273.298 128.528 273.801 128.528H296.313C296.816 128.528 297.223 128.12 297.223 127.616V112.931C297.223 112.427 296.816 112.019 296.313 112.019Z" fill="white"/>
<path d="M334.803 112.019H303.815C303.689 112.019 303.587 112.122 303.587 112.248V114.417C303.587 114.543 303.689 114.646 303.815 114.646H334.803C334.929 114.646 335.031 114.543 335.031 114.417V112.248C335.031 112.122 334.929 112.019 334.803 112.019Z" fill="white"/>
<path d="M334.803 117.647H303.815C303.689 117.647 303.587 117.75 303.587 117.876V120.045C303.587 120.171 303.689 120.274 303.815 120.274H334.803C334.929 120.274 335.031 120.171 335.031 120.045V117.876C335.031 117.75 334.929 117.647 334.803 117.647Z" fill="white"/>
<path d="M334.784 123.275H303.834C303.697 123.275 303.587 123.386 303.587 123.523V125.654C303.587 125.791 303.697 125.902 303.834 125.902H334.784C334.92 125.902 335.031 125.791 335.031 125.654V123.523C335.031 123.386 334.92 123.275 334.784 123.275Z" fill="white"/>
<path d="M296.313 137.908H273.801C273.298 137.908 272.891 138.316 272.891 138.82V153.505C272.891 154.008 273.298 154.417 273.801 154.417H296.313C296.816 154.417 297.223 154.008 297.223 153.505V138.82C297.223 138.316 296.816 137.908 296.313 137.908Z" fill="white"/>
<path d="M334.784 137.908H303.834C303.697 137.908 303.587 138.019 303.587 138.156V140.287C303.587 140.423 303.697 140.534 303.834 140.534H334.784C334.92 140.534 335.031 140.423 335.031 140.287V138.156C335.031 138.019 334.92 137.908 334.784 137.908Z" fill="white"/>
<path d="M334.784 143.536H303.834C303.697 143.536 303.587 143.647 303.587 143.784V145.915C303.587 146.051 303.697 146.162 303.834 146.162H334.784C334.92 146.162 335.031 146.051 335.031 145.915V143.784C335.031 143.647 334.92 143.536 334.784 143.536Z" fill="white"/>
<path d="M334.784 149.164H303.834C303.697 149.164 303.587 149.275 303.587 149.411V151.543C303.587 151.679 303.697 151.79 303.834 151.79H334.784C334.92 151.79 335.031 151.679 335.031 151.543V149.411C335.031 149.275 334.92 149.164 334.784 149.164Z" fill="white"/>
<path d="M296.313 163.797H273.801C273.298 163.797 272.891 164.205 272.891 164.708V179.394C272.891 179.897 273.298 180.305 273.801 180.305H296.313C296.816 180.305 297.223 179.897 297.223 179.394V164.708C297.223 164.205 296.816 163.797 296.313 163.797Z" fill="white"/>
<path d="M334.784 163.797H303.834C303.697 163.797 303.587 163.908 303.587 164.044V166.175C303.587 166.312 303.697 166.423 303.834 166.423H334.784C334.92 166.423 335.031 166.312 335.031 166.175V164.044C335.031 163.908 334.92 163.797 334.784 163.797Z" fill="white"/>
<path d="M334.784 169.425H303.834C303.697 169.425 303.587 169.535 303.587 169.672V171.803C303.587 171.94 303.697 172.051 303.834 172.051H334.784C334.92 172.051 335.031 171.94 335.031 171.803V169.672C335.031 169.535 334.92 169.425 334.784 169.425Z" fill="white"/>
<path d="M334.784 175.052H303.834C303.697 175.052 303.587 175.163 303.587 175.3V177.431C303.587 177.568 303.697 177.679 303.834 177.679H334.784C334.92 177.679 335.031 177.568 335.031 177.431V175.3C335.031 175.163 334.92 175.052 334.784 175.052Z" fill="white"/>
<path d="M296.313 189.685H273.801C273.298 189.685 272.891 190.093 272.891 190.597V205.282C272.891 205.786 273.298 206.194 273.801 206.194H296.313C296.816 206.194 297.223 205.786 297.223 205.282V190.597C297.223 190.093 296.816 189.685 296.313 189.685Z" fill="white"/>
<path d="M334.784 189.685H303.834C303.697 189.685 303.587 189.796 303.587 189.933V192.064C303.587 192.201 303.697 192.312 303.834 192.312H334.784C334.92 192.312 335.031 192.201 335.031 192.064V189.933C335.031 189.796 334.92 189.685 334.784 189.685Z" fill="white"/>
<path d="M334.784 195.313H303.834C303.697 195.313 303.587 195.424 303.587 195.561V197.692C303.587 197.829 303.697 197.94 303.834 197.94H334.784C334.92 197.94 335.031 197.829 335.031 197.692V195.561C335.031 195.424 334.92 195.313 334.784 195.313Z" fill="white"/>
<path d="M334.784 200.941H303.834C303.697 200.941 303.587 201.052 303.587 201.189V203.32C303.587 203.457 303.697 203.568 303.834 203.568H334.784C334.92 203.568 335.031 203.457 335.031 203.32V201.189C335.031 201.052 334.92 200.941 334.784 200.941Z" fill="white"/>
<path opacity="0.1" d="M152.636 122.003H114.143V124.003H152.636V122.003Z" fill="#E98300"/>
<path opacity="0.1" d="M121.27 111.43H117.564V122.003H121.27V111.43Z" fill="#E98300"/>
<path opacity="0.1" d="M126.687 111.43H122.981V122.003H126.687V111.43Z" fill="#E98300"/>
<path opacity="0.1" d="M132.103 111.43H128.397V122.003H132.103V111.43Z" fill="#E98300"/>
<path opacity="0.1" d="M137.52 111.43H133.814V122.003H137.52V111.43Z" fill="#E98300"/>
<path opacity="0.1" d="M142.937 111.43H139.231V122.003H142.937V111.43Z" fill="#E98300"/>
<path opacity="0.1" d="M148.357 111.43H144.651V122.003H148.357V111.43Z" fill="#E98300"/>
<path opacity="0.1" d="M121.27 113.43H117.564V114.574H121.27V113.43Z" fill="#E98300"/>
<path opacity="0.1" d="M126.687 113.43H122.981V114.574H126.687V113.43Z" fill="#E98300"/>
<path opacity="0.1" d="M132.103 113.43H128.397V114.574H132.103V113.43Z" fill="#E98300"/>
<path opacity="0.1" d="M137.52 113.43H133.814V114.574H137.52V113.43Z" fill="#E98300"/>
<path opacity="0.1" d="M142.937 113.43H139.231V114.574H142.937V113.43Z" fill="#E98300"/>
<path opacity="0.1" d="M148.357 113.43H144.651V114.574H148.357V113.43Z" fill="#E98300"/>
<path opacity="0.1" d="M121.27 118.574H117.564V119.718H121.27V118.574Z" fill="#E98300"/>
<path opacity="0.1" d="M126.687 118.574H122.981V119.718H126.687V118.574Z" fill="#E98300"/>
<path opacity="0.1" d="M132.103 118.574H128.397V119.718H132.103V118.574Z" fill="#E98300"/>
<path opacity="0.1" d="M137.52 118.574H133.814V119.718H137.52V118.574Z" fill="#E98300"/>
<path opacity="0.1" d="M142.937 118.574H139.231V119.718H142.937V118.574Z" fill="#E98300"/>
<path opacity="0.1" d="M148.357 118.574H144.651V119.718H148.357V118.574Z" fill="#E98300"/>
<path opacity="0.1" d="M237.03 127.147H198.537V129.147H237.03V127.147Z" fill="#E98300"/>
<path opacity="0.1" d="M205.664 116.574H201.958V127.147H205.664V116.574Z" fill="#E98300"/>
<path opacity="0.1" d="M211.081 116.574H207.375V127.147H211.081V116.574Z" fill="#E98300"/>
<path opacity="0.1" d="M216.497 116.574H212.792V127.147H216.497V116.574Z" fill="#E98300"/>
<path opacity="0.1" d="M221.918 116.574H218.212V127.147H221.918V116.574Z" fill="#E98300"/>
<path opacity="0.1" d="M227.334 116.574H223.628V127.147H227.334V116.574Z" fill="#E98300"/>
<path opacity="0.1" d="M232.751 116.574H229.045V127.147H232.751V116.574Z" fill="#E98300"/>
<path opacity="0.1" d="M205.664 118.574H201.958V119.718H205.664V118.574Z" fill="#E98300"/>
<path opacity="0.1" d="M211.081 118.574H207.375V119.718H211.081V118.574Z" fill="#E98300"/>
<path opacity="0.1" d="M216.497 118.574H212.792V119.718H216.497V118.574Z" fill="#E98300"/>
<path opacity="0.1" d="M221.918 118.574H218.212V119.718H221.918V118.574Z" fill="#E98300"/>
<path opacity="0.1" d="M227.334 118.574H223.628V119.718H227.334V118.574Z" fill="#E98300"/>
<path opacity="0.1" d="M232.751 118.574H229.045V119.718H232.751V118.574Z" fill="#E98300"/>
<path opacity="0.1" d="M205.664 123.718H201.958V124.862H205.664V123.718Z" fill="#E98300"/>
<path opacity="0.1" d="M211.081 123.718H207.375V124.862H211.081V123.718Z" fill="#E98300"/>
<path opacity="0.1" d="M216.497 123.718H212.792V124.862H216.497V123.718Z" fill="#E98300"/>
<path opacity="0.1" d="M221.918 123.718H218.212V124.862H221.918V123.718Z" fill="#E98300"/>
<path opacity="0.1" d="M227.334 123.718H223.628V124.862H227.334V123.718Z" fill="#E98300"/>
<path opacity="0.1" d="M232.751 123.718H229.045V124.862H232.751V123.718Z" fill="#E98300"/>
<path opacity="0.1" d="M237.03 141.72H198.537V143.72H237.03V141.72Z" fill="#E98300"/>
<path opacity="0.1" d="M205.664 131.147H201.958V141.72H205.664V131.147Z" fill="#E98300"/>
<path opacity="0.1" d="M211.081 131.147H207.375V141.72H211.081V131.147Z" fill="#E98300"/>
<path opacity="0.1" d="M216.497 131.147H212.792V141.72H216.497V131.147Z" fill="#E98300"/>
<path opacity="0.1" d="M221.918 131.147H218.212V141.72H221.918V131.147Z" fill="#E98300"/>
<path opacity="0.1" d="M227.334 131.147H223.628V141.72H227.334V131.147Z" fill="#E98300"/>
<path opacity="0.1" d="M232.751 131.147H229.045V141.72H232.751V131.147Z" fill="#E98300"/>
<path opacity="0.1" d="M205.664 133.147H201.958V134.291H205.664V133.147Z" fill="#E98300"/>
<path opacity="0.1" d="M211.081 133.147H207.375V134.291H211.081V133.147Z" fill="#E98300"/>
<path opacity="0.1" d="M216.497 133.147H212.792V134.291H216.497V133.147Z" fill="#E98300"/>
<path opacity="0.1" d="M221.918 133.147H218.212V134.291H221.918V133.147Z" fill="#E98300"/>
<path opacity="0.1" d="M227.334 133.147H223.628V134.291H227.334V133.147Z" fill="#E98300"/>
<path opacity="0.1" d="M232.751 133.147H229.045V134.291H232.751V133.147Z" fill="#E98300"/>
<path opacity="0.1" d="M205.664 138.291H201.958V139.435H205.664V138.291Z" fill="#E98300"/>
<path opacity="0.1" d="M211.081 138.291H207.375V139.435H211.081V138.291Z" fill="#E98300"/>
<path opacity="0.1" d="M216.497 138.291H212.792V139.435H216.497V138.291Z" fill="#E98300"/>
<path opacity="0.1" d="M221.918 138.291H218.212V139.435H221.918V138.291Z" fill="#E98300"/>
<path opacity="0.1" d="M227.334 138.291H223.628V139.435H227.334V138.291Z" fill="#E98300"/>
<path opacity="0.1" d="M232.751 138.291H229.045V139.435H232.751V138.291Z" fill="#E98300"/>
<path d="M137.756 144.617C137.469 144.248 137.206 143.86 136.97 143.457L142.514 142.545L136.524 142.59C135.95 141.337 135.636 139.979 135.603 138.6C135.569 137.22 135.817 135.849 136.33 134.569L144.359 138.741L136.943 133.278C137.633 132.065 138.566 131.008 139.683 130.173C140.8 129.338 142.077 128.744 143.434 128.428C144.791 128.111 146.198 128.079 147.568 128.334C148.938 128.589 150.241 129.125 151.394 129.908C152.547 130.691 153.527 131.705 154.27 132.886C155.014 134.066 155.507 135.389 155.716 136.769C155.926 138.15 155.849 139.559 155.489 140.908C155.13 142.257 154.496 143.517 153.628 144.609C154.079 145.18 154.466 145.799 154.781 146.455L147.586 150.207L155.256 147.629C155.793 149.223 155.925 150.926 155.64 152.584C155.356 154.242 154.664 155.803 153.628 157.126C154.803 158.619 155.535 160.414 155.74 162.305C155.945 164.197 155.614 166.107 154.786 167.819C153.958 169.531 152.666 170.974 151.057 171.984C149.449 172.994 147.59 173.529 145.692 173.529C143.794 173.529 141.934 172.994 140.326 171.984C138.718 170.974 137.425 169.531 136.597 167.819C135.769 166.107 135.439 164.197 135.644 162.305C135.849 160.414 136.58 158.619 137.756 157.126C136.356 155.341 135.595 153.136 135.595 150.865C135.595 148.595 136.356 146.39 137.756 144.605V144.617Z" fill="#FDF5EA"/>
<path d="M155.791 150.875C155.792 153.143 155.029 155.345 153.628 157.126C154.803 158.619 155.535 160.414 155.74 162.305C155.945 164.197 155.614 166.107 154.786 167.819C153.958 169.531 152.666 170.974 151.057 171.984C149.449 172.994 147.59 173.529 145.692 173.529C143.794 173.529 141.934 172.994 140.326 171.984C138.718 170.974 137.425 169.531 136.597 167.819C135.769 166.107 135.439 164.197 135.644 162.305C135.849 160.414 136.58 158.619 137.756 157.126C136.397 155.411 155.791 149.738 155.791 150.875Z" fill="#FFFBF6"/>
<path opacity="0.2" d="M147.309 176.216C147.326 176.242 147.343 176.27 147.358 176.298H143.929C143.947 176.272 143.959 176.242 143.977 176.216C143.682 175.701 143.53 175.117 143.536 174.524C143.534 174.117 143.604 173.713 143.741 173.33C143.932 173.36 144.168 173.394 144.441 173.424C145.237 173.504 146.038 173.504 146.833 173.424C147.063 173.402 147.299 173.372 147.541 173.334C147.539 173.34 147.539 173.347 147.541 173.353C147.677 173.729 147.746 174.127 147.743 174.527C147.751 175.119 147.601 175.702 147.309 176.216Z" fill="#003D67"/>
<path d="M134.986 176.298H115.895C115.853 176.189 115.816 176.073 115.782 175.961C115.11 173.792 115.187 171.46 116.003 169.342C114.139 168.051 112.763 166.169 112.094 163.999C111.425 161.829 111.503 159.497 112.316 157.377C111.932 157.112 111.568 156.82 111.227 156.503L116.25 153.993L110.538 155.809C109.619 154.781 108.92 153.577 108.482 152.269C108.044 150.962 107.878 149.578 107.992 148.203L116.905 149.817L108.213 146.789C108.513 145.424 109.092 144.135 109.912 143.005C110.733 141.875 111.778 140.927 112.982 140.222C114.186 139.516 115.523 139.068 116.908 138.905C118.294 138.743 119.698 138.869 121.032 139.277C122.366 139.685 123.601 140.365 124.66 141.274C125.719 142.184 126.579 143.303 127.186 144.562C127.792 145.821 128.132 147.192 128.184 148.589C128.236 149.986 127.999 151.379 127.488 152.68C128.091 153.1 128.647 153.584 129.146 154.124L123.374 159.831L129.943 155.096C130.928 156.461 131.557 158.051 131.774 159.722C131.991 161.392 131.789 163.091 131.186 164.663C132.999 165.922 134.352 167.74 135.038 169.84C135.724 171.941 135.705 174.209 134.986 176.298Z" fill="#FDF5EA"/>
<path d="M134.986 176.298H115.894C115.853 176.189 115.816 176.073 115.782 175.961C115.11 173.792 115.187 171.46 116.003 169.342C114.206 168.096 131.063 156.934 131.396 158.022C132.068 160.192 131.991 162.525 131.175 164.645C132.994 165.902 134.351 167.723 135.04 169.828C135.728 171.932 135.709 174.205 134.986 176.298Z" fill="#FFFBF6"/>
<path d="M221.364 162.588C220.204 164.539 218.423 166.041 216.307 166.851C216.397 167.573 216.411 168.302 216.348 169.027L208.258 168.539L216.161 170.258C215.928 171.337 215.521 172.371 214.955 173.319C214.266 174.48 213.349 175.488 212.26 176.283H201.247V176.572H190.017C190.039 176.475 190.062 176.381 190.088 176.283C190.498 174.731 191.27 173.299 192.34 172.104C193.411 170.91 194.75 169.987 196.246 169.413C195.959 167.161 196.434 164.877 197.597 162.929C198.76 160.98 200.542 159.479 202.658 158.668C202.599 158.204 202.571 157.736 202.576 157.268L207.798 159.336L202.632 156.293C202.784 154.921 203.214 153.596 203.896 152.397C204.578 151.198 205.497 150.152 206.596 149.321L211.354 157.043L207.787 148.541C209.73 147.463 211.973 147.057 214.17 147.385C216.366 147.713 218.394 148.757 219.939 150.356C221.485 151.955 222.462 154.02 222.719 156.231C222.976 158.442 222.5 160.676 221.364 162.588Z" fill="#FDF5EA"/>
<path d="M214.955 173.334C214.266 174.495 213.349 175.503 212.26 176.298H201.247V176.587H190.017C190.039 176.49 190.062 176.396 190.088 176.298C190.498 174.746 191.27 173.314 192.34 172.119C193.411 170.925 194.75 170.002 196.246 169.428C196.152 168.678 198.327 168.791 201.228 169.278C206.914 170.235 215.341 172.689 214.955 173.334Z" fill="#FFFBF6"/>
<path d="M167.22 146.316C167.22 146.316 168.605 153.82 165.513 156.27C162.421 158.72 168.133 173.405 177.559 171.691C186.985 169.976 190.825 157.658 190.825 157.658C190.825 157.658 181.385 155.7 184.885 145.746L167.22 146.316Z" fill="#FAD6A6"/>
<path d="M175.564 151.824C184.195 151.824 191.192 144.811 191.192 136.16C191.192 127.508 184.195 120.495 175.564 120.495C166.932 120.495 159.935 127.508 159.935 136.16C159.935 144.811 166.932 151.824 175.564 151.824Z" fill="#FCE8CD"/>
<path d="M201.247 165.939V176.587H149.641V166.423C149.641 165.134 150.02 163.874 150.73 162.8C151.44 161.725 152.451 160.884 153.635 160.382L155.114 159.752C158.857 158.154 163.405 156.169 164.891 155.343C165.054 155.262 165.207 155.163 165.348 155.047C166.16 154.233 165.999 155.291 165.999 155.291C165.999 155.291 165.977 155.494 165.962 155.842C165.872 158.24 166.217 167.661 177.233 166.877C187.98 166.127 188.463 158.84 188.355 156.698C188.349 156.5 188.332 156.302 188.306 156.105C189.049 156.282 189.777 156.521 190.481 156.818C192.727 157.651 196.044 158.987 196.931 159.617C197.208 159.812 197.545 160.015 197.912 160.221C198.328 160.454 198.717 160.732 199.072 161.05C199.757 161.666 200.304 162.42 200.679 163.263C201.054 164.105 201.247 165.017 201.247 165.939Z" fill="#E98300"/>
<path opacity="0.1" d="M190.481 156.818C189.571 161.043 186.715 168.956 176.421 169.162C165.453 169.38 164.816 158.446 164.888 155.343C165.053 155.264 165.207 155.165 165.348 155.047C166.164 154.233 165.999 155.291 165.999 155.291C165.999 155.291 164.618 167.774 177.229 166.877C189.841 165.98 188.291 156.109 188.291 156.109C188.291 156.049 189.231 156.375 190.481 156.818Z" fill="black"/>
<path d="M157.064 136.944C157.583 136.814 158.129 136.843 158.631 137.026C159.134 137.21 159.57 137.541 159.883 137.976C160.452 138.775 160.538 139.739 160.609 140.662C161.287 140.804 161.668 140.035 161.732 139.454C161.983 137.086 162.002 134.674 162.795 132.385C163.589 130.096 165.322 127.883 167.983 127.008C168.893 126.693 169.865 126.6 170.817 126.738C171.382 126.832 171.914 127.031 172.475 127.114C174.422 127.436 176.537 126.513 178.36 127.155C179.505 127.56 180.232 128.494 180.767 129.428C181 129.932 181.316 130.393 181.703 130.79C182.478 131.488 183.691 131.668 184.802 131.886C185.914 132.104 187.127 132.483 187.602 133.342C188.029 134.118 187.715 135.015 187.572 135.856C187.352 137.187 187.575 138.554 188.205 139.746C188.411 140.122 188.83 140.576 189.328 140.452C189.551 140.376 189.74 140.223 189.86 140.02C191.136 138.227 191.102 135.893 192.705 134.276C193.24 133.736 193.932 133.316 194.453 132.775C194.847 132.375 195.135 131.883 195.293 131.344C195.451 130.804 195.474 130.234 195.359 129.684C195.07 128.445 194.082 127.432 193.285 126.344C192.249 124.966 191.495 123.396 191.065 121.726C190.99 121.531 190.99 121.316 191.065 121.122C191.216 120.925 191.411 120.765 191.634 120.656C192.068 120.365 192.381 119.925 192.515 119.419C192.648 118.912 192.593 118.375 192.36 117.906C191.907 116.979 190.912 116.274 189.789 115.854C188.649 115.479 187.474 115.227 186.281 115.103C185.495 115.216 184.574 114.769 184.331 114.139C184.222 113.858 184.222 113.554 184.114 113.272C183.966 112.99 183.753 112.747 183.493 112.564C183.232 112.381 182.932 112.264 182.616 112.222C181.947 112.113 181.261 112.162 180.614 112.364C179.865 112.575 179.015 112.89 178.368 112.522C178.027 112.331 177.84 111.982 177.473 111.824C176.724 111.509 175.953 112.147 175.418 112.672C174.902 113.223 174.268 113.65 173.565 113.922C173.193 114.063 172.795 114.123 172.399 114.097C172.002 114.07 171.616 113.958 171.266 113.768C170.753 113.441 170.495 112.916 170.087 112.5C169.316 111.811 168.33 111.413 167.298 111.374C166.237 111.317 165.174 111.434 164.15 111.719C162.196 112.196 160.33 112.982 158.621 114.045C157.762 114.519 157.033 115.198 156.499 116.023C156.183 116.655 156.02 117.353 156.023 118.06C155.941 120.277 156.675 122.611 158.588 124.164C157.42 124.652 157.027 125.849 156.753 126.911C156.315 128.607 155.877 130.329 156.042 132.055C156.124 132.948 156.368 133.841 156.237 134.73C156.132 135.149 156.074 135.578 156.065 136.009C156.12 136.247 156.244 136.463 156.422 136.629C156.6 136.796 156.824 136.905 157.064 136.944Z" fill="#004879"/>
<g opacity="0.1">
<path opacity="0.1" d="M195.115 128.986C194.947 129.353 194.72 129.691 194.442 129.984C193.921 130.532 193.229 130.956 192.693 131.485C191.091 133.09 191.125 135.439 189.848 137.233C189.729 137.435 189.54 137.588 189.317 137.66C188.83 137.788 188.411 137.345 188.194 136.955C187.946 136.48 187.759 135.976 187.636 135.454C187.61 135.585 187.584 135.717 187.561 135.829C187.341 137.161 187.564 138.528 188.194 139.72C188.4 140.095 188.819 140.549 189.317 140.425C189.54 140.35 189.728 140.197 189.848 139.994C191.125 138.201 191.091 135.867 192.693 134.25C193.229 133.709 193.921 133.289 194.442 132.749C194.835 132.349 195.124 131.857 195.282 131.317C195.44 130.778 195.463 130.208 195.347 129.657C195.29 129.427 195.212 129.202 195.115 128.986Z" fill="black"/>
<path opacity="0.1" d="M191.627 117.88C191.403 117.988 191.208 118.147 191.058 118.345C190.983 118.538 190.983 118.752 191.058 118.945C191.205 119.528 191.394 120.1 191.623 120.656C192.057 120.365 192.37 119.925 192.503 119.419C192.637 118.912 192.582 118.375 192.349 117.906C192.276 117.752 192.188 117.605 192.087 117.467C191.954 117.626 191.799 117.765 191.627 117.88Z" fill="black"/>
<path opacity="0.1" d="M158.612 121.358C157.285 120.263 156.412 118.713 156.16 117.009C156.093 117.346 156.055 117.687 156.047 118.03C155.962 119.668 156.392 121.292 157.279 122.671C157.547 122.084 158.022 121.617 158.612 121.358Z" fill="black"/>
<path opacity="0.1" d="M187.573 133.09C187.715 132.246 188.029 131.35 187.602 130.577C187.127 129.714 185.914 129.338 184.802 129.121C183.691 128.903 182.478 128.719 181.703 128.025C181.316 127.628 181 127.167 180.767 126.663C180.239 125.729 179.506 124.787 178.36 124.39C176.537 123.748 174.422 124.667 172.476 124.348C171.914 124.255 171.382 124.059 170.817 123.973C169.865 123.834 168.893 123.926 167.983 124.243C165.322 125.121 163.589 127.335 162.795 129.62C162.002 131.905 161.983 134.317 161.732 136.689C161.668 137.266 161.287 138.039 160.609 137.897C160.538 136.97 160.452 136.021 159.883 135.207C159.569 134.773 159.133 134.443 158.631 134.26C158.128 134.076 157.583 134.048 157.064 134.179C156.75 134.108 156.47 133.929 156.274 133.672C156.315 134.016 156.315 134.364 156.274 134.708C156.169 135.126 156.111 135.555 156.102 135.987C156.15 136.227 156.269 136.447 156.443 136.619C156.617 136.791 156.839 136.907 157.079 136.951C157.598 136.821 158.144 136.85 158.646 137.034C159.149 137.218 159.585 137.548 159.898 137.983C160.467 138.782 160.553 139.746 160.624 140.669C161.302 140.812 161.683 140.043 161.747 139.461C161.998 137.094 162.017 134.681 162.81 132.393C163.604 130.104 165.337 127.89 167.998 127.016C168.908 126.7 169.88 126.608 170.832 126.746C171.397 126.84 171.929 127.038 172.49 127.121C174.437 127.444 176.552 126.521 178.375 127.162C179.521 127.568 180.247 128.502 180.782 129.436C181.015 129.94 181.331 130.4 181.718 130.798C182.493 131.496 183.706 131.676 184.817 131.894C185.929 132.111 187.063 132.464 187.561 133.259C187.543 133.203 187.561 133.147 187.573 133.09Z" fill="black"/>
<path opacity="0.1" d="M156.259 131.924C156.321 131.225 156.279 130.52 156.136 129.834C156.026 130.559 156.002 131.294 156.065 132.025C156.065 132.212 156.106 132.4 156.132 132.584C156.173 132.363 156.229 132.145 156.259 131.924Z" fill="black"/>
</g>
<path d="M137.939 191.726V184.954C137.939 184.903 137.959 184.855 137.995 184.819C138.031 184.783 138.079 184.763 138.13 184.763H138.897C138.948 184.763 138.997 184.783 139.032 184.819C139.068 184.855 139.088 184.903 139.088 184.954V187.772L142.203 184.879C142.276 184.818 142.365 184.779 142.459 184.765C142.554 184.752 142.65 184.766 142.737 184.805C142.824 184.845 142.898 184.907 142.952 184.987C143.005 185.066 143.034 185.159 143.038 185.254V191.389C143.034 191.484 143.005 191.577 142.952 191.656C142.898 191.736 142.824 191.798 142.737 191.838C142.65 191.877 142.554 191.89 142.459 191.877C142.365 191.864 142.276 191.825 142.203 191.764L139.088 188.89V191.693C139.088 191.743 139.068 191.792 139.032 191.828C138.997 191.864 138.948 191.884 138.897 191.884H138.13C138.085 191.885 138.041 191.869 138.006 191.84C137.971 191.812 137.947 191.771 137.939 191.726Z" fill="#545454"/>
<path d="M213.192 184.954V191.726C213.192 191.752 213.187 191.777 213.177 191.8C213.167 191.824 213.153 191.845 213.135 191.863C213.117 191.881 213.095 191.895 213.072 191.904C213.048 191.914 213.023 191.918 212.997 191.918H212.249C212.198 191.918 212.15 191.898 212.114 191.862C212.078 191.826 212.058 191.777 212.058 191.726V188.909L208.943 191.798C208.87 191.858 208.781 191.897 208.686 191.91C208.591 191.923 208.495 191.909 208.408 191.87C208.321 191.831 208.246 191.769 208.193 191.69C208.139 191.611 208.109 191.518 208.105 191.422V185.265C208.109 185.17 208.139 185.077 208.193 184.998C208.246 184.919 208.321 184.857 208.408 184.818C208.495 184.779 208.591 184.765 208.686 184.778C208.781 184.79 208.87 184.829 208.943 184.89L212.058 187.764V184.965C212.058 184.915 212.078 184.866 212.114 184.83C212.15 184.794 212.198 184.774 212.249 184.774H212.997C213.047 184.773 213.095 184.791 213.131 184.825C213.167 184.858 213.189 184.905 213.192 184.954Z" fill="#545454"/>
<path d="M174.295 192.019H172.771C172.573 192.019 172.382 191.94 172.242 191.799C172.101 191.659 172.022 191.468 172.022 191.269V185.663C172.022 185.464 172.101 185.273 172.242 185.133C172.382 184.992 172.573 184.913 172.771 184.913H174.295C174.493 184.913 174.684 184.992 174.824 185.133C174.964 185.273 175.043 185.464 175.043 185.663V191.269C175.043 191.468 174.964 191.659 174.824 191.799C174.684 191.94 174.493 192.019 174.295 192.019ZM179.124 191.269V185.663C179.124 185.464 179.045 185.273 178.904 185.133C178.764 184.992 178.573 184.913 178.375 184.913H176.836C176.638 184.913 176.447 184.992 176.307 185.133C176.167 185.273 176.088 185.464 176.088 185.663V191.269C176.088 191.468 176.167 191.659 176.307 191.799C176.447 191.94 176.638 192.019 176.836 192.019H178.36C178.46 192.021 178.559 192.003 178.651 191.966C178.744 191.93 178.828 191.875 178.899 191.805C178.97 191.735 179.027 191.651 179.065 191.559C179.104 191.467 179.124 191.369 179.124 191.269Z" fill="#545454"/>
<path opacity="0.6" d="M220.484 175.826H130.643V176.827H220.484V175.826Z" fill="#545454"/>
<path d="M158.385 178.7C159.694 178.7 160.755 177.636 160.755 176.324C160.755 175.013 159.694 173.949 158.385 173.949C157.077 173.949 156.016 175.013 156.016 176.324C156.016 177.636 157.077 178.7 158.385 178.7Z" fill="#545454"/>
<path d="M158.385 175.826H130.643V176.827H158.385V175.826Z" fill="#545454"/>
<path d="M358.27 288.895C370.565 288.895 380.532 286.974 380.532 284.603C380.532 282.233 370.565 280.311 358.27 280.311C345.975 280.311 336.008 282.233 336.008 284.603C336.008 286.974 345.975 288.895 358.27 288.895Z" fill="#E98300"/>
<path d="M357.899 286.179C359.33 286.179 360.49 284.657 360.49 282.78C360.49 280.902 359.33 279.38 357.899 279.38C356.469 279.38 355.309 280.902 355.309 282.78C355.309 284.657 356.469 286.179 357.899 286.179Z" fill="#003D67"/>
<path d="M357.899 282.022C359.33 282.022 360.49 280.5 360.49 278.622C360.49 276.745 359.33 275.223 357.899 275.223C356.469 275.223 355.309 276.745 355.309 278.622C355.309 280.5 356.469 282.022 357.899 282.022Z" fill="#003D67"/>
<path d="M357.899 277.868C359.33 277.868 360.49 276.346 360.49 274.469C360.49 272.592 359.33 271.07 357.899 271.07C356.469 271.07 355.309 272.592 355.309 274.469C355.309 276.346 356.469 277.868 357.899 277.868Z" fill="#003D67"/>
<path d="M357.899 273.711C359.33 273.711 360.49 272.189 360.49 270.312C360.49 268.434 359.33 266.912 357.899 266.912C356.469 266.912 355.309 268.434 355.309 270.312C355.309 272.189 356.469 273.711 357.899 273.711Z" fill="#003D67"/>
<path d="M357.899 269.554C359.33 269.554 360.49 268.032 360.49 266.155C360.49 264.277 359.33 262.755 357.899 262.755C356.469 262.755 355.309 264.277 355.309 266.155C355.309 268.032 356.469 269.554 357.899 269.554Z" fill="#003D67"/>
<path d="M357.899 265.397C359.33 265.397 360.49 263.875 360.49 261.997C360.49 260.12 359.33 258.598 357.899 258.598C356.469 258.598 355.309 260.12 355.309 261.997C355.309 263.875 356.469 265.397 357.899 265.397Z" fill="#003D67"/>
<path d="M357.899 261.239C359.33 261.239 360.49 259.717 360.49 257.84C360.49 255.963 359.33 254.441 357.899 254.441C356.469 254.441 355.309 255.963 355.309 257.84C355.309 259.717 356.469 261.239 357.899 261.239Z" fill="#003D67"/>
<path d="M367.598 229.4C367.952 228.947 368.274 228.471 368.564 227.974L361.751 226.849L369.118 226.905C369.824 225.364 370.208 223.694 370.249 221.999C370.289 220.304 369.985 218.618 369.354 217.045L359.479 222.185L368.59 215.473C367.737 213.993 366.588 212.706 365.217 211.691C363.845 210.676 362.279 209.955 360.617 209.573C358.956 209.191 357.233 209.156 355.557 209.471C353.881 209.785 352.288 210.442 350.877 211.401C349.465 212.36 348.266 213.599 347.353 215.043C346.441 216.486 345.835 218.103 345.573 219.791C345.311 221.48 345.398 223.205 345.831 224.858C346.263 226.511 347.03 228.057 348.084 229.4C347.535 230.099 347.061 230.853 346.669 231.651L355.511 236.255L346.085 233.085C345.423 235.045 345.26 237.14 345.609 239.18C345.958 241.22 346.808 243.141 348.084 244.768C346.645 246.604 345.75 248.808 345.501 251.129C345.252 253.45 345.66 255.795 346.678 257.894C347.696 259.994 349.283 261.765 351.257 263.003C353.232 264.242 355.514 264.899 357.843 264.899C360.172 264.899 362.454 264.242 364.429 263.003C366.403 261.765 367.99 259.994 369.008 257.894C370.026 255.795 370.434 253.45 370.185 251.129C369.937 248.808 369.041 246.604 367.602 244.768C369.322 242.575 370.256 239.866 370.256 237.077C370.256 234.287 369.322 231.578 367.602 229.385L367.598 229.4Z" fill="#E98300"/>
<path opacity="0.1" d="M345.43 237.092C345.425 239.882 346.36 242.592 348.084 244.783C346.645 246.619 345.75 248.823 345.501 251.144C345.252 253.465 345.66 255.81 346.678 257.909C347.696 260.009 349.283 261.78 351.257 263.018C353.232 264.257 355.514 264.914 357.843 264.914C360.172 264.914 362.454 264.257 364.429 263.018C366.403 261.78 367.99 260.009 369.008 257.909C370.026 255.81 370.434 253.465 370.185 251.144C369.937 248.823 369.041 246.619 367.602 244.783C369.264 242.671 345.43 235.696 345.43 237.092Z" fill="black"/>
<path opacity="0.1" d="M108.557 312C129.025 312 145.617 308.472 145.617 304.121C145.617 299.769 129.025 296.242 108.557 296.242C88.0902 296.242 71.4982 299.769 71.4982 304.121C71.4982 308.472 88.0902 312 108.557 312Z" fill="#E98300"/>
<path d="M120.967 303.205C120.218 302.931 119.417 302.976 118.635 302.89C117.01 302.702 115.498 301.966 114.345 300.804C113.603 300.053 113.02 299.16 112.63 298.178C112.877 298.268 113.124 298.362 113.379 298.463C112.63 296.711 113.416 294.745 114.105 292.974C115.273 289.972 116.377 286.954 117.418 283.92C120.038 276.232 122.284 268.237 122.236 260.058C122.236 257.101 121.693 254.306 121.588 251.353C121.51 249.162 121.846 246.974 121.832 244.779C121.832 244.472 121.832 244.168 121.809 243.86C122.479 243.273 123.005 242.539 123.347 241.715C123.689 240.892 123.838 240 123.782 239.11C123.744 238.646 123.678 238.185 123.583 237.729C123.451 236.938 123.276 236.154 123.059 235.381C122.812 234.567 122.475 233.786 122.187 232.991C121.629 231.449 121.251 229.843 120.776 228.274C120.952 228.293 121.124 228.339 121.285 228.413C121.165 228.272 121.083 228.103 121.045 227.922C120.766 226.923 120.615 225.893 120.596 224.856L120.914 224.714C121.058 223.702 121.006 222.671 120.761 221.678C120.941 220.069 121.221 218.448 121.394 216.846C121.457 216.246 121.431 215.491 120.881 215.345C120.768 214.486 120.723 213.615 120.679 212.749C120.521 209.725 120.365 206.702 120.211 203.68C120.053 200.645 119.896 197.613 119.836 194.574C119.795 192.646 119.773 190.65 119.316 188.804C119.395 187.919 119.305 187.028 119.05 186.177C118.354 183.967 116.19 182.215 113.997 182.339C113.342 181.401 112.534 180.581 111.605 179.915C112.043 178.932 112.567 177.919 112.997 177.124C116.508 175.979 119.076 172.509 119.076 168.382C119.082 166.871 118.729 165.38 118.047 164.033C118.111 163.867 118.166 163.698 118.212 163.526C118.4 162.716 118.341 161.868 118.043 161.091C117.938 160.793 117.813 160.502 117.669 160.221C117.572 160.033 117.467 159.846 117.358 159.666L117.167 159.377C117.051 159.2 116.931 159.032 116.793 158.867C116.527 158.509 116.242 158.166 115.939 157.838C115.567 157.434 115.155 157.067 114.712 156.743C114.11 156.294 113.421 155.976 112.69 155.809C112.267 155.725 111.837 155.686 111.406 155.692C111.148 155.692 110.886 155.692 110.628 155.715C110.104 155.745 109.583 155.782 109.063 155.779C108.891 155.779 108.715 155.779 108.543 155.752C107.627 155.63 106.721 155.441 105.832 155.186L105.383 155.092C105.23 155.062 105.08 155.036 104.926 155.017C104.516 154.962 104.102 154.937 103.687 154.942H103.272C102.857 154.962 102.443 155.005 102.033 155.069L101.621 155.133C100.581 155.296 99.5679 155.598 98.6077 156.03C98.4842 156.086 98.3569 156.15 98.2333 156.218L98.1585 156.259C98.0574 156.311 97.9563 156.368 97.859 156.428L97.8028 156.461L97.4847 156.664L97.4585 156.683C94.4862 158.686 92.7306 162.483 92.2851 166.25C91.7873 170.479 92.6595 174.741 93.5317 178.902L94.3178 182.654C94.3515 182.823 94.3889 182.988 94.4226 183.157C93.3172 184.066 92.467 185.248 91.9557 186.586C91.207 188.462 91.1883 190.492 91.2482 192.526C91.2482 192.938 91.2707 193.351 91.3119 193.764C91.2183 194.544 91.1359 195.328 91.0835 196.116C90.8477 199.756 91.2894 203.414 91.1734 207.061C91.0835 209.871 90.6605 212.689 90.8664 215.48C91.0461 217.957 91.7087 220.358 92.3637 222.748L93.3071 226.155C93.3377 226.331 93.4197 226.494 93.5429 226.624C93.6978 226.728 93.8873 226.767 94.0707 226.732C93.4571 228.13 92.9442 229.569 92.5359 231.04C92.2539 231.94 92.0682 232.869 91.9819 233.809C91.8584 235.527 92.2552 237.234 92.652 238.904C93.2509 241.405 93.8474 243.916 94.4413 246.438C94.8606 248.201 95.2786 249.963 95.6953 251.724C96.5189 255.199 97.3462 258.696 97.4996 262.271C97.5852 264.067 97.4596 265.866 97.1253 267.633C96.0453 272.922 95.8883 278.359 96.6611 283.702C97.2859 288.21 98.2991 292.656 99.6895 296.988C99.9927 296.827 100.3 296.677 100.614 296.538L100.483 296.782C100.051 297.532 99.6521 298.301 99.2852 299.089C99.0379 299.601 98.8241 300.129 98.6451 300.669C98.166 302.17 98.0911 303.768 98.0237 305.348C97.9894 305.651 98.0162 305.959 98.1023 306.252C98.3082 306.818 98.8997 307.107 99.4499 307.265C101.067 307.726 102.748 307.561 104.429 307.344C104.436 307.381 104.448 307.417 104.462 307.453C104.668 308.019 105.256 308.308 105.81 308.466C108.123 309.126 110.564 308.503 112.949 308.278C115.333 308.053 117.676 308.218 119.971 307.666C120.313 307.593 120.641 307.467 120.944 307.291C121.534 306.878 121.967 306.276 122.172 305.584C122.244 305.405 122.292 305.217 122.314 305.025C122.408 304.203 121.708 303.479 120.967 303.205ZM113.05 268.458C112.921 269.337 112.668 270.194 112.301 271.002C110.5 274.84 109.209 278.898 108.46 283.072C107.969 285.83 107.685 288.62 107.61 291.42C107.573 293.484 107.652 295.645 106.794 297.499L107.105 297.45C107.008 297.63 106.914 297.825 106.824 297.968L106.779 298.05C106.261 297.165 105.914 296.19 105.758 295.176C105.758 295.142 105.589 295.116 105.331 295.101C104.273 289.174 103.906 283.144 104.238 277.133C104.243 276.404 104.343 275.678 104.537 274.975C104.728 274.371 105.05 273.82 105.286 273.234C105.66 272.251 105.911 271.225 106.035 270.18C106.442 267.51 106.6 264.806 106.506 262.106C106.416 259.558 107.004 257.026 107.506 254.49C107.745 253.285 107.966 252.077 108.086 250.869L108.108 250.625C110.336 254.308 111.892 258.358 112.705 262.586C113.157 264.509 113.274 266.496 113.05 268.458ZM97.028 214.235L97.1478 214.34C97.5096 214.659 97.8428 215.009 98.1435 215.386C98.2931 215.551 98.401 215.749 98.4579 215.964C98.5702 216.512 98.1173 216.977 97.7467 217.379C97.5857 217.553 97.4345 217.736 97.2938 217.926C97.2139 216.696 97.1291 215.465 97.0392 214.235H97.028Z" fill="url(#paint0_linear)"/>
<path d="M91.8471 190.717L91.4354 193.903C91.2969 194.983 91.1584 196.06 91.0835 197.144C90.8327 200.754 91.2969 204.378 91.1771 207.995C91.0798 210.779 90.638 213.559 90.8514 216.339C91.0423 218.793 91.7386 221.179 92.4348 223.543L93.4231 226.92C93.4569 227.096 93.543 227.259 93.6702 227.385C93.8606 227.498 94.0867 227.534 94.3028 227.487L98.69 227.089C98.4093 225.798 98.0986 224.462 97.9413 223.138C97.8216 222.102 97.7504 221.059 97.6756 220.016C97.4435 216.767 97.1777 213.518 96.9269 210.261L96.459 204.558C96.2606 202.082 96.0547 199.594 95.4333 197.189C94.8098 194.76 93.575 192.532 91.8471 190.717Z" fill="#E98300"/>
<path opacity="0.1" d="M91.8471 190.717L91.4354 193.903C91.2969 194.983 91.1584 196.06 91.0835 197.144C90.8327 200.754 91.2969 204.378 91.1771 207.995C91.0798 210.779 90.638 213.559 90.8514 216.339C91.0423 218.793 91.7386 221.179 92.4348 223.543L93.4231 226.92C93.4569 227.096 93.543 227.259 93.6702 227.385C93.8606 227.498 94.0867 227.534 94.3028 227.487L98.69 227.089C98.4093 225.798 98.0986 224.462 97.9413 223.138C97.8216 222.102 97.7504 221.059 97.6756 220.016C97.4435 216.767 97.1777 213.518 96.9269 210.261L96.459 204.558C96.2606 202.082 96.0547 199.594 95.4333 197.189C94.8098 194.76 93.575 192.532 91.8471 190.717Z" fill="black"/>
<path d="M99.6633 299.157C99.4057 299.665 99.1807 300.189 98.9895 300.725C98.4878 302.207 98.413 303.798 98.3381 305.363C98.305 305.664 98.333 305.969 98.4205 306.26C98.6376 306.822 99.259 307.107 99.8392 307.261C102.269 307.918 104.829 307.303 107.326 307.077C109.823 306.852 112.29 307.017 114.7 306.473C115.056 306.404 115.401 306.284 115.722 306.117C116.333 305.719 116.788 305.123 117.014 304.429C117.086 304.251 117.135 304.064 117.16 303.873C117.238 303.048 116.523 302.335 115.745 302.065C114.966 301.795 114.116 301.836 113.297 301.753C111.608 301.58 110.024 300.854 108.789 299.686C107.555 298.519 106.739 296.976 106.469 295.296C106.439 295.116 102.411 295.225 101.977 295.458C101.483 295.731 101.183 296.411 100.902 296.872C100.461 297.615 100.048 298.377 99.6633 299.157Z" fill="#FDC82F"/>
<path opacity="0.1" d="M99.6633 299.157C99.4057 299.665 99.1807 300.189 98.9895 300.725C98.4878 302.207 98.413 303.798 98.3381 305.363C98.305 305.664 98.333 305.969 98.4205 306.26C98.6376 306.822 99.259 307.107 99.8392 307.261C102.269 307.918 104.829 307.303 107.326 307.077C109.823 306.852 112.29 307.017 114.7 306.473C115.056 306.404 115.401 306.284 115.722 306.117C116.333 305.719 116.788 305.123 117.014 304.429C117.086 304.251 117.135 304.064 117.16 303.873C117.238 303.048 116.523 302.335 115.745 302.065C114.966 301.795 114.116 301.836 113.297 301.753C111.608 301.58 110.024 300.854 108.789 299.686C107.555 298.519 106.739 296.976 106.469 295.296C106.439 295.116 102.411 295.225 101.977 295.458C101.483 295.731 101.183 296.411 100.902 296.872C100.461 297.615 100.048 298.377 99.6633 299.157Z" fill="black"/>
<path d="M106.345 300.35C106.086 300.856 105.861 301.379 105.671 301.915C105.166 303.416 105.091 304.988 105.02 306.552C104.985 306.854 105.013 307.159 105.102 307.449C105.316 308.012 105.937 308.297 106.517 308.454C108.947 309.107 111.511 308.492 114.004 308.267C116.497 308.042 118.972 308.207 121.379 307.663C121.736 307.59 122.081 307.464 122.4 307.288C123.012 306.89 123.468 306.294 123.692 305.599C123.765 305.421 123.814 305.235 123.838 305.044C123.917 304.222 123.202 303.506 122.423 303.235C121.644 302.965 120.795 303.01 119.975 302.924C118.287 302.75 116.704 302.024 115.469 300.858C114.235 299.691 113.419 298.149 113.147 296.471C113.117 296.29 109.089 296.396 108.655 296.628C108.157 296.902 107.858 297.581 107.577 298.043C107.15 298.804 106.731 299.57 106.345 300.35Z" fill="#FDC82F"/>
<path d="M123.763 260.493C123.815 268.601 121.465 276.525 118.706 284.13C117.613 287.147 116.453 290.137 115.228 293.101C114.502 294.857 113.682 296.808 114.461 298.542C112.215 297.686 109.931 297.183 107.569 297.577C108.468 295.739 108.382 293.6 108.423 291.574C108.499 288.798 108.794 286.031 109.306 283.301C110.099 279.146 111.458 275.12 113.345 271.336C113.727 270.538 113.99 269.689 114.128 268.815C114.435 266.886 114.195 264.905 113.794 262.995C112.933 258.777 111.295 254.757 108.966 251.139L108.943 251.379C108.803 252.586 108.601 253.784 108.337 254.97C107.809 257.48 107.191 259.994 107.285 262.519C107.382 265.196 107.217 267.877 106.791 270.522C106.653 271.56 106.383 272.577 105.986 273.546C105.728 274.127 105.391 274.672 105.188 275.276C104.986 275.971 104.88 276.69 104.874 277.414C104.575 283.519 104.874 289.717 106.117 295.701C104.032 295.536 101.947 296.14 100.083 297.078C98.6249 292.795 97.5599 288.387 96.9007 283.909C96.0884 278.614 96.2534 273.214 97.3873 267.978C97.7407 266.232 97.8728 264.448 97.7804 262.669C97.6194 259.123 96.7509 255.656 95.8862 252.212L94.5686 246.959C93.9447 244.458 93.3208 241.968 92.6969 239.489C92.2814 237.835 91.8621 236.142 91.9931 234.439C92.0845 233.504 92.2804 232.583 92.5771 231.693C93.5117 228.663 94.9096 225.798 96.721 223.198C103.934 223.603 111.234 222.928 118.432 222.373C118.782 222.304 119.144 222.365 119.451 222.545C119.696 222.795 119.842 223.126 119.862 223.476L122.569 238.859C123.007 240.997 123.264 243.168 123.336 245.35C123.336 247.526 122.999 249.695 123.082 251.867C123.194 254.794 123.748 257.562 123.763 260.493Z" fill="#004879"/>
<path opacity="0.1" d="M108.951 251.379C108.811 252.586 108.608 253.784 108.344 254.97C106.776 252.25 105.084 249.597 103.639 246.809C103.264 246.093 102.913 245.365 102.557 244.637L101.49 242.461C101.292 242.052 101.093 241.643 100.914 241.226C100.621 240.628 100.396 239.999 100.244 239.35C100.768 239.253 102.063 240.671 102.452 241.043C103.246 241.831 103.996 242.662 104.698 243.534C105.551 244.503 106.334 245.531 107.041 246.61C107.947 248.078 108.593 249.691 108.951 251.379Z" fill="black"/>
<path d="M114.959 176.748C114.959 176.748 110.953 183.146 111.694 184.485C112.436 185.825 99.0793 183.296 99.0793 183.296C99.0793 183.296 106.353 176.899 105.608 174.22C104.863 171.541 114.959 176.748 114.959 176.748Z" fill="#FCE8CD"/>
<path d="M111.399 178.685C116.4 178.685 120.454 174.621 120.454 169.609C120.454 164.596 116.4 160.532 111.399 160.532C106.398 160.532 102.344 164.596 102.344 169.609C102.344 174.621 106.398 178.685 111.399 178.685Z" fill="#FCE8CD"/>
<path d="M115.093 183.457C114.124 182.109 112.808 181.048 111.286 180.388C110.41 180.073 109.503 179.849 108.58 179.72L104.968 179.082C104.084 178.925 103.137 178.778 102.314 179.142C101.897 179.356 101.518 179.636 101.191 179.971C99.9366 181.138 98.72 182.418 97.1441 183.093C96.7136 183.277 96.2644 183.412 95.8339 183.596C94.0708 184.346 92.7531 185.945 92.0082 187.723C91.2221 189.577 91.1996 191.591 91.2595 193.606C91.2585 194.302 91.3274 194.996 91.4654 195.677C91.6456 196.327 91.8746 196.961 92.1504 197.576C92.6481 198.891 93.0657 200.236 93.4007 201.602C94.3365 205.191 95.1152 208.818 95.7366 212.482C95.7893 213.007 95.9431 213.517 96.1895 213.983C96.5385 214.45 96.9607 214.857 97.4398 215.188C97.8198 215.5 98.1695 215.848 98.4842 216.227C98.641 216.382 98.7579 216.572 98.8248 216.782C98.9409 217.322 98.4505 217.788 98.0762 218.182C97.2706 219.006 96.6882 220.022 96.3842 221.134C96.1964 221.363 96.1003 221.653 96.1146 221.949C96.1926 222.154 96.2221 222.375 96.2007 222.594C96.127 222.793 96.0108 222.974 95.8601 223.123C95.6874 223.349 95.5646 223.609 95.5001 223.886C95.4355 224.162 95.4306 224.45 95.4857 224.729C98.2916 225.951 101.295 226.655 104.35 226.807C105.099 226.845 105.847 226.845 106.596 226.935C107.128 227.003 107.652 227.111 108.183 227.175C108.955 227.248 109.73 227.268 110.504 227.235C114.536 227.153 118.683 227.051 122.386 225.449C122.734 223.547 121.981 221.607 121.51 219.731C120.761 216.73 120.574 213.657 120.012 210.629C119.638 208.562 119.076 206.524 118.758 204.442C118.44 202.36 118.384 200.202 118.938 198.176C119.443 196.383 119.597 194.552 120.121 192.762C120.645 190.972 121.012 189.033 120.42 187.262C119.672 185.07 117.399 183.333 115.093 183.457Z" fill="#E98300"/>
<path d="M119.541 164.795C119.982 163.185 119.114 161.508 118.081 160.198C116.958 158.791 115.528 157.523 113.772 157.171C112.346 156.882 110.867 157.231 109.415 157.114C108.131 157.013 106.895 156.548 105.619 156.364C104.461 156.239 103.291 156.283 102.145 156.495C101.058 156.657 99.9955 156.955 98.982 157.381C95.1264 159.095 92.8691 163.32 92.345 167.511C91.821 171.702 92.7381 175.927 93.6515 180.05L94.4788 183.78C95.3397 187.663 96.2007 191.561 96.429 195.531C96.6574 199.501 96.2306 203.575 94.6023 207.2C99.8683 204.364 103.949 199.734 106.106 194.146C106.69 192.612 107.124 191.017 107.775 189.509C108.333 188.211 109.048 186.98 109.542 185.656C110.101 184.161 110.369 182.573 110.332 180.977C110.302 179.776 110.104 178.583 110.137 177.383C110.171 176.182 110.478 174.933 111.305 174.062C112.054 173.293 113.083 172.936 114.03 172.437C115.521 171.67 116.824 170.581 117.845 169.248C118.44 168.468 118.474 168.123 118.623 167.237C118.773 166.352 119.308 165.646 119.541 164.795Z" fill="#004879"/>
<path d="M119.552 232.972C119.645 233.906 119.477 234.848 119.679 235.775C119.833 236.465 120.188 237.088 120.398 237.763C120.605 238.543 120.712 239.346 120.716 240.153C120.746 240.829 120.693 241.654 120.095 241.969C119.833 242.108 119.518 242.108 119.245 242.228C118.972 242.348 118.739 242.675 118.897 242.93C119.054 243.185 119.323 243.144 119.57 243.192C119.818 243.241 120.083 243.496 119.945 243.703C119.888 243.77 119.813 243.819 119.728 243.841C119.478 243.919 119.241 244.032 119.024 244.179C118.918 244.256 118.835 244.361 118.784 244.482C118.734 244.603 118.717 244.736 118.736 244.866C118.751 244.928 118.78 244.986 118.82 245.035C118.861 245.084 118.912 245.124 118.97 245.151C119.028 245.177 119.091 245.191 119.155 245.189C119.219 245.188 119.282 245.172 119.338 245.143C119.229 245.379 119.169 245.634 119.162 245.894C120.121 246.307 121.195 245.766 122.094 245.245C122.482 245.027 122.857 244.787 123.217 244.524C123.943 243.965 124.522 243.236 124.903 242.401C125.285 241.566 125.456 240.65 125.403 239.733C125.36 239.273 125.289 238.815 125.189 238.364C125.051 237.577 124.867 236.799 124.639 236.034C124.381 235.227 124.029 234.458 123.726 233.666C123.082 231.981 122.666 230.218 122.082 228.511C122.043 228.334 121.944 228.176 121.802 228.064C121.673 228.001 121.529 227.974 121.386 227.986C120.731 227.951 120.074 228.012 119.436 228.166C119.061 228.278 118.421 228.541 118.245 228.916C118.069 229.291 118.35 229.606 118.519 229.918C119.057 230.859 119.407 231.897 119.552 232.972Z" fill="#FCE8CD"/>
<path opacity="0.1" d="M118.942 187.382C119.134 187.579 119.295 187.804 119.421 188.049C120.708 190.394 120.723 193.197 120.783 195.872C120.851 198.874 121.015 201.876 121.18 204.896L121.671 213.901C121.719 214.76 121.764 215.619 121.888 216.471C122.464 216.617 122.487 217.367 122.423 217.972C122.007 221.641 120.978 225.419 122.049 228.95C122.09 229.131 122.176 229.299 122.299 229.438C121.756 229.267 121.174 229.259 120.626 229.415C120.091 229.528 119.574 229.727 119.035 229.85C118.354 230.004 117.583 230.072 117.119 230.601C116.593 229.015 116.174 227.395 115.865 225.753C115.61 224.252 115.539 222.707 114.932 221.318C114.689 220.759 114.36 220.241 114.06 219.705C112.492 216.898 111.721 213.728 110.968 210.599C110.631 209.115 110.55 207.585 110.729 206.074C110.838 205.385 110.9 204.689 110.916 203.992C110.87 203.255 110.774 202.523 110.628 201.8C110.31 199.679 110.459 197.513 111.066 195.456C111.627 193.546 112.121 191.535 113.312 189.929C114.502 188.323 116.954 187.408 118.942 187.382Z" fill="black"/>
<path d="M119.387 187.081C119.579 187.28 119.741 187.506 119.866 187.753C121.154 190.094 121.169 192.901 121.229 195.576C121.296 198.577 121.461 201.579 121.626 204.581L122.116 213.585C122.165 214.445 122.21 215.304 122.333 216.156C122.91 216.302 122.932 217.052 122.865 217.656C122.453 221.326 121.423 225.1 122.49 228.635C122.532 228.816 122.618 228.984 122.741 229.122C122.197 228.952 121.616 228.944 121.068 229.1C120.533 229.212 120.016 229.411 119.477 229.531C118.796 229.689 118.024 229.753 117.56 230.282C117.036 228.689 116.621 227.062 116.318 225.412C116.063 223.911 115.992 222.369 115.385 220.981C115.122 220.428 114.831 219.89 114.513 219.367C112.941 216.561 112.174 213.387 111.421 210.257C111.083 208.774 111.002 207.243 111.182 205.733C111.464 204.318 111.429 202.859 111.081 201.459C110.762 199.339 110.912 197.174 111.519 195.118C112.08 193.208 112.574 191.197 113.765 189.591C114.955 187.986 117.399 187.111 119.387 187.081Z" fill="#E98300"/>
<g opacity="0.1">
<path opacity="0.1" d="M118.081 160.198C116.958 158.791 115.528 157.523 113.772 157.171C112.346 156.882 110.867 157.231 109.415 157.114C108.131 157.013 106.895 156.548 105.619 156.364C104.461 156.239 103.291 156.283 102.145 156.495C101.058 156.657 99.9955 156.955 98.982 157.381C98.4345 157.627 97.9118 157.924 97.421 158.27C98.3231 157.919 99.2608 157.667 100.217 157.52C101.362 157.307 102.53 157.263 103.687 157.388C104.968 157.553 106.199 158.015 107.487 158.116C108.936 158.232 110.414 157.887 111.844 158.172C113.6 158.525 115.037 159.797 116.149 161.204C117.186 162.51 118.051 164.187 117.613 165.8C117.381 166.648 116.842 167.391 116.696 168.265C116.55 169.139 116.512 169.496 115.913 170.276C115.145 171.277 114.217 172.143 113.166 172.839C113.454 172.704 113.75 172.569 114.03 172.422C115.521 171.655 116.824 170.566 117.845 169.233C118.44 168.453 118.474 168.108 118.623 167.222C118.773 166.337 119.308 165.609 119.541 164.757C119.982 163.185 119.114 161.508 118.081 160.198Z" fill="black"/>
<path opacity="0.1" d="M111.305 174.085C111.46 173.923 111.629 173.777 111.811 173.646C110.946 174.066 110.036 174.434 109.374 175.146C108.546 176.013 108.251 177.266 108.206 178.467C108.161 179.668 108.374 180.861 108.4 182.058C108.437 183.655 108.169 185.244 107.61 186.74C107.116 188.065 106.401 189.291 105.844 190.593C105.196 192.094 104.762 193.692 104.178 195.227C102.306 200.072 98.9835 204.216 94.6659 207.091C94.6435 207.14 94.6248 207.192 94.6023 207.241C99.8684 204.406 103.949 199.776 106.106 194.188C106.69 192.653 107.124 191.059 107.775 189.55C108.333 188.252 109.048 187.021 109.542 185.697C110.101 184.202 110.369 182.614 110.332 181.018C110.302 179.818 110.104 178.625 110.137 177.424C110.171 176.223 110.478 174.955 111.305 174.085Z" fill="black"/>
</g>
<defs>
<linearGradient id="paint0_linear" x1="107.315" y1="308.747" x2="107.315" y2="154.953" gradientUnits="userSpaceOnUse">
<stop stop-color="#808080" stop-opacity="0.25"/>
<stop offset="0.54" stop-color="#808080" stop-opacity="0.12"/>
<stop offset="1" stop-color="#808080" stop-opacity="0.1"/>
</linearGradient>
</defs>
</svg>
