<svg width="54" height="54" viewBox="0 0 54 54" fill="none" xmlns="http://www.w3.org/2000/svg">
<path d="M35.1 27.0001C35.1 29.1483 34.2466 31.2086 32.7276 32.7276C31.2085 34.2467 29.1482 35.1001 27 35.1001C24.8517 35.1001 22.7915 34.2467 21.2724 32.7276C19.7534 31.2086 18.9 29.1483 18.9 27.0001C18.9 26.5384 18.9486 26.0875 19.0323 25.6501H16.2V36.442C16.2 37.1926 16.8075 37.8001 17.5581 37.8001H36.4446C36.8043 37.7994 37.1491 37.656 37.4032 37.4013C37.6573 37.1467 37.8 36.8017 37.8 36.442V25.6501H34.9677C35.0514 26.0875 35.1 26.5384 35.1 27.0001ZM27 32.4001C27.7093 32.3999 28.4116 32.26 29.0669 31.9884C29.7221 31.7168 30.3175 31.3188 30.8189 30.8171C31.3204 30.3154 31.7181 29.7199 31.9894 29.0645C32.2606 28.4091 32.4002 27.7067 32.4 26.9974C32.3998 26.2881 32.2599 25.5857 31.9883 24.9305C31.7167 24.2752 31.3187 23.6799 30.817 23.1784C30.3153 22.677 29.7198 22.2793 29.0644 22.008C28.409 21.7367 27.7066 21.5972 26.9973 21.5974C25.5648 21.5977 24.191 22.1671 23.1784 23.1804C22.1657 24.1936 21.5969 25.5676 21.5973 27.0001C21.5976 28.4326 22.1671 29.8063 23.1803 30.819C24.1935 31.8317 25.5675 32.4004 27 32.4001ZM33.48 21.3301H36.7173C36.9324 21.3301 37.1387 21.2448 37.291 21.093C37.4433 20.9412 37.5293 20.7352 37.53 20.5201V17.2828C37.53 17.0672 37.4444 16.8605 37.292 16.7081C37.1395 16.5557 36.9328 16.4701 36.7173 16.4701H33.48C33.2644 16.4701 33.0577 16.5557 32.9053 16.7081C32.7529 16.8605 32.6673 17.0672 32.6673 17.2828V20.5201C32.67 20.9656 33.0345 21.3301 33.48 21.3301ZM27 1.08008C20.1256 1.08008 13.5327 3.81093 8.67178 8.67187C3.81084 13.5328 1.07999 20.1257 1.07999 27.0001C1.07999 33.8745 3.81084 40.4673 8.67178 45.3283C13.5327 50.1892 20.1256 52.9201 27 52.9201C30.4039 52.9201 33.7744 52.2496 36.9191 50.947C40.0639 49.6444 42.9213 47.7352 45.3282 45.3283C47.7351 42.9214 49.6443 40.064 50.9469 36.9192C52.2495 33.7745 52.92 30.4039 52.92 27.0001C52.92 23.5962 52.2495 20.2257 50.9469 17.0809C49.6443 13.9362 47.7351 11.0788 45.3282 8.67187C42.9213 6.26498 40.0639 4.35572 36.9191 3.05312C33.7744 1.75052 30.4039 1.08008 27 1.08008ZM40.5 37.5004C40.5 39.1501 39.15 40.5001 37.5003 40.5001H16.4997C14.85 40.5001 13.5 39.1501 13.5 37.5004V16.4998C13.5 14.8501 14.85 13.5001 16.4997 13.5001H37.5003C39.15 13.5001 40.5 14.8501 40.5 16.4998V37.5004Z" fill="#0779E4"/>
</svg>
